<mxfile host="app.diagrams.net" modified="2023-09-27T12:22:41.929Z" agent="Mozilla/5.0 (Windows NT 10.0; Win64; x64) AppleWebKit/537.36 (KHTML, like Gecko) Chrome/117.0.0.0 Safari/537.36" etag="BW7H5na5uVyrh96PYhT5" version="21.8.2" type="device">
  <diagram name="Page-1" id="dSGyD1wzsmgGo0dMCQRR">
    <mxGraphModel dx="1434" dy="782" grid="1" gridSize="10" guides="1" tooltips="1" connect="1" arrows="1" fold="1" page="1" pageScale="1" pageWidth="827" pageHeight="1169" math="0" shadow="0">
      <root>
        <mxCell id="0" />
        <mxCell id="1" parent="0" />
        <mxCell id="rdbbEUeV5dIYCpDkVzWQ-1" value="Service" style="swimlane;whiteSpace=wrap;html=1;" parent="1" vertex="1">
          <mxGeometry x="120" y="50" width="200" height="200" as="geometry" />
        </mxCell>
        <mxCell id="LovLC7l2qMn9VrOVw8My-13" value="" style="rounded=0;whiteSpace=wrap;html=1;" vertex="1" parent="rdbbEUeV5dIYCpDkVzWQ-1">
          <mxGeometry y="23" width="40" height="177" as="geometry" />
        </mxCell>
        <mxCell id="LovLC7l2qMn9VrOVw8My-10" value="" style="rounded=0;whiteSpace=wrap;html=1;fillColor=none;" vertex="1" parent="rdbbEUeV5dIYCpDkVzWQ-1">
          <mxGeometry y="23" width="200" height="27" as="geometry" />
        </mxCell>
        <mxCell id="LovLC7l2qMn9VrOVw8My-11" value="PK" style="text;html=1;strokeColor=none;fillColor=none;align=center;verticalAlign=middle;whiteSpace=wrap;rounded=0;" vertex="1" parent="rdbbEUeV5dIYCpDkVzWQ-1">
          <mxGeometry x="-10" y="23" width="60" height="30" as="geometry" />
        </mxCell>
        <mxCell id="LovLC7l2qMn9VrOVw8My-14" value="vin (NOT NULL)" style="text;html=1;strokeColor=none;fillColor=none;align=left;verticalAlign=middle;whiteSpace=wrap;rounded=0;" vertex="1" parent="rdbbEUeV5dIYCpDkVzWQ-1">
          <mxGeometry x="46" y="53" width="100" height="30" as="geometry" />
        </mxCell>
        <mxCell id="LovLC7l2qMn9VrOVw8My-15" value="service_name (NOT NULL)" style="text;html=1;strokeColor=none;fillColor=none;align=left;verticalAlign=middle;whiteSpace=wrap;rounded=0;" vertex="1" parent="rdbbEUeV5dIYCpDkVzWQ-1">
          <mxGeometry x="45" y="75" width="148" height="30" as="geometry" />
        </mxCell>
        <mxCell id="LovLC7l2qMn9VrOVw8My-17" value="FK" style="text;html=1;strokeColor=none;fillColor=none;align=center;verticalAlign=middle;whiteSpace=wrap;rounded=0;" vertex="1" parent="rdbbEUeV5dIYCpDkVzWQ-1">
          <mxGeometry y="75" width="40" height="30" as="geometry" />
        </mxCell>
        <mxCell id="LovLC7l2qMn9VrOVw8My-18" value="service_start (NOT NULL)" style="text;html=1;strokeColor=none;fillColor=none;align=left;verticalAlign=middle;whiteSpace=wrap;rounded=0;" vertex="1" parent="rdbbEUeV5dIYCpDkVzWQ-1">
          <mxGeometry x="45" y="99.5" width="148" height="30" as="geometry" />
        </mxCell>
        <mxCell id="LovLC7l2qMn9VrOVw8My-19" value="service_end (NOT NULL)" style="text;html=1;strokeColor=none;fillColor=none;align=left;verticalAlign=middle;whiteSpace=wrap;rounded=0;" vertex="1" parent="rdbbEUeV5dIYCpDkVzWQ-1">
          <mxGeometry x="45" y="123" width="148" height="30" as="geometry" />
        </mxCell>
        <mxCell id="LovLC7l2qMn9VrOVw8My-16" value="FK" style="text;html=1;strokeColor=none;fillColor=none;align=center;verticalAlign=middle;whiteSpace=wrap;rounded=0;" vertex="1" parent="rdbbEUeV5dIYCpDkVzWQ-1">
          <mxGeometry y="53" width="40" height="30" as="geometry" />
        </mxCell>
        <mxCell id="LovLC7l2qMn9VrOVw8My-12" value="id" style="text;html=1;strokeColor=none;fillColor=none;align=center;verticalAlign=middle;whiteSpace=wrap;rounded=0;" vertex="1" parent="1">
          <mxGeometry x="145" y="73" width="60" height="30" as="geometry" />
        </mxCell>
        <mxCell id="LovLC7l2qMn9VrOVw8My-32" value="Car" style="swimlane;whiteSpace=wrap;html=1;" vertex="1" parent="1">
          <mxGeometry x="120" y="280" width="200" height="200" as="geometry" />
        </mxCell>
        <mxCell id="LovLC7l2qMn9VrOVw8My-33" value="" style="rounded=0;whiteSpace=wrap;html=1;" vertex="1" parent="LovLC7l2qMn9VrOVw8My-32">
          <mxGeometry y="23" width="40" height="177" as="geometry" />
        </mxCell>
        <mxCell id="LovLC7l2qMn9VrOVw8My-34" value="" style="rounded=0;whiteSpace=wrap;html=1;fillColor=none;" vertex="1" parent="LovLC7l2qMn9VrOVw8My-32">
          <mxGeometry y="23" width="200" height="27" as="geometry" />
        </mxCell>
        <mxCell id="LovLC7l2qMn9VrOVw8My-35" value="PK" style="text;html=1;strokeColor=none;fillColor=none;align=center;verticalAlign=middle;whiteSpace=wrap;rounded=0;" vertex="1" parent="LovLC7l2qMn9VrOVw8My-32">
          <mxGeometry x="-10" y="23" width="60" height="30" as="geometry" />
        </mxCell>
        <mxCell id="LovLC7l2qMn9VrOVw8My-36" value="regist_num (NOT NULL)" style="text;html=1;strokeColor=none;fillColor=none;align=left;verticalAlign=middle;whiteSpace=wrap;rounded=0;" vertex="1" parent="LovLC7l2qMn9VrOVw8My-32">
          <mxGeometry x="46" y="53" width="134" height="30" as="geometry" />
        </mxCell>
        <mxCell id="LovLC7l2qMn9VrOVw8My-37" value="brand (NOT NULL)" style="text;html=1;strokeColor=none;fillColor=none;align=left;verticalAlign=middle;whiteSpace=wrap;rounded=0;" vertex="1" parent="LovLC7l2qMn9VrOVw8My-32">
          <mxGeometry x="45" y="75" width="148" height="30" as="geometry" />
        </mxCell>
        <mxCell id="LovLC7l2qMn9VrOVw8My-39" value="model (NOT NULL)" style="text;html=1;strokeColor=none;fillColor=none;align=left;verticalAlign=middle;whiteSpace=wrap;rounded=0;" vertex="1" parent="LovLC7l2qMn9VrOVw8My-32">
          <mxGeometry x="45" y="99.5" width="148" height="30" as="geometry" />
        </mxCell>
        <mxCell id="LovLC7l2qMn9VrOVw8My-41" value="vin" style="text;html=1;strokeColor=none;fillColor=none;align=center;verticalAlign=middle;whiteSpace=wrap;rounded=0;" vertex="1" parent="LovLC7l2qMn9VrOVw8My-32">
          <mxGeometry x="27" y="23" width="60" height="30" as="geometry" />
        </mxCell>
        <mxCell id="LovLC7l2qMn9VrOVw8My-44" value="" style="fontSize=12;html=1;endArrow=ERoneToMany;rounded=0;edgeStyle=elbowEdgeStyle;" edge="1" parent="1">
          <mxGeometry width="100" height="100" relative="1" as="geometry">
            <mxPoint x="320" y="315" as="sourcePoint" />
            <mxPoint x="320" y="118" as="targetPoint" />
            <Array as="points">
              <mxPoint x="370" y="210" />
            </Array>
          </mxGeometry>
        </mxCell>
        <mxCell id="LovLC7l2qMn9VrOVw8My-45" value="Car" style="swimlane;whiteSpace=wrap;html=1;" vertex="1" parent="1">
          <mxGeometry x="500" y="50" width="200" height="200" as="geometry" />
        </mxCell>
        <mxCell id="LovLC7l2qMn9VrOVw8My-46" value="" style="rounded=0;whiteSpace=wrap;html=1;" vertex="1" parent="LovLC7l2qMn9VrOVw8My-45">
          <mxGeometry y="23" width="40" height="177" as="geometry" />
        </mxCell>
        <mxCell id="LovLC7l2qMn9VrOVw8My-47" value="" style="rounded=0;whiteSpace=wrap;html=1;fillColor=none;" vertex="1" parent="LovLC7l2qMn9VrOVw8My-45">
          <mxGeometry y="23" width="200" height="27" as="geometry" />
        </mxCell>
        <mxCell id="LovLC7l2qMn9VrOVw8My-48" value="PK" style="text;html=1;strokeColor=none;fillColor=none;align=center;verticalAlign=middle;whiteSpace=wrap;rounded=0;" vertex="1" parent="LovLC7l2qMn9VrOVw8My-45">
          <mxGeometry y="23" width="40" height="30" as="geometry" />
        </mxCell>
        <mxCell id="LovLC7l2qMn9VrOVw8My-49" value="adress_city(NOT NULL)" style="text;html=1;strokeColor=none;fillColor=none;align=left;verticalAlign=middle;whiteSpace=wrap;rounded=0;" vertex="1" parent="LovLC7l2qMn9VrOVw8My-45">
          <mxGeometry x="46" y="53" width="134" height="30" as="geometry" />
        </mxCell>
        <mxCell id="LovLC7l2qMn9VrOVw8My-51" value="adress_building (NOT NULL)" style="text;html=1;strokeColor=none;fillColor=none;align=left;verticalAlign=middle;whiteSpace=wrap;rounded=0;" vertex="1" parent="LovLC7l2qMn9VrOVw8My-45">
          <mxGeometry x="46" y="105" width="155" height="30" as="geometry" />
        </mxCell>
        <mxCell id="LovLC7l2qMn9VrOVw8My-52" value="name" style="text;html=1;strokeColor=none;fillColor=none;align=left;verticalAlign=middle;whiteSpace=wrap;rounded=0;" vertex="1" parent="LovLC7l2qMn9VrOVw8My-45">
          <mxGeometry x="46" y="23" width="60" height="30" as="geometry" />
        </mxCell>
        <mxCell id="LovLC7l2qMn9VrOVw8My-50" value="adress_street (NOT NULL)" style="text;html=1;strokeColor=none;fillColor=none;align=left;verticalAlign=middle;whiteSpace=wrap;rounded=0;" vertex="1" parent="1">
          <mxGeometry x="545" y="126" width="148" height="30" as="geometry" />
        </mxCell>
        <mxCell id="LovLC7l2qMn9VrOVw8My-53" value="max_cars (NOT NULL)" style="text;html=1;strokeColor=none;fillColor=none;align=left;verticalAlign=middle;whiteSpace=wrap;rounded=0;" vertex="1" parent="1">
          <mxGeometry x="546" y="188" width="155" height="30" as="geometry" />
        </mxCell>
        <mxCell id="LovLC7l2qMn9VrOVw8My-54" value="" style="edgeStyle=elbowEdgeStyle;fontSize=12;html=1;endArrow=ERoneToMany;rounded=0;" edge="1" parent="1" source="LovLC7l2qMn9VrOVw8My-48">
          <mxGeometry width="100" height="100" relative="1" as="geometry">
            <mxPoint x="340" y="230" as="sourcePoint" />
            <mxPoint x="320" y="140" as="targetPoint" />
          </mxGeometry>
        </mxCell>
        <mxCell id="LovLC7l2qMn9VrOVw8My-55" value="Issusing" style="swimlane;whiteSpace=wrap;html=1;" vertex="1" parent="1">
          <mxGeometry x="120" y="530" width="200" height="200" as="geometry" />
        </mxCell>
        <mxCell id="LovLC7l2qMn9VrOVw8My-56" value="" style="rounded=0;whiteSpace=wrap;html=1;" vertex="1" parent="LovLC7l2qMn9VrOVw8My-55">
          <mxGeometry y="23" width="40" height="177" as="geometry" />
        </mxCell>
        <mxCell id="LovLC7l2qMn9VrOVw8My-57" value="" style="rounded=0;whiteSpace=wrap;html=1;fillColor=none;" vertex="1" parent="LovLC7l2qMn9VrOVw8My-55">
          <mxGeometry y="23" width="200" height="27" as="geometry" />
        </mxCell>
        <mxCell id="LovLC7l2qMn9VrOVw8My-58" value="PK" style="text;html=1;strokeColor=none;fillColor=none;align=center;verticalAlign=middle;whiteSpace=wrap;rounded=0;" vertex="1" parent="LovLC7l2qMn9VrOVw8My-55">
          <mxGeometry x="-10" y="23" width="60" height="30" as="geometry" />
        </mxCell>
        <mxCell id="LovLC7l2qMn9VrOVw8My-59" value="vin (NOT NULL)" style="text;html=1;strokeColor=none;fillColor=none;align=left;verticalAlign=middle;whiteSpace=wrap;rounded=0;" vertex="1" parent="LovLC7l2qMn9VrOVw8My-55">
          <mxGeometry x="46" y="53" width="100" height="30" as="geometry" />
        </mxCell>
        <mxCell id="LovLC7l2qMn9VrOVw8My-60" value="№_driver&#39;s_licensce&amp;nbsp;(NOT NULL, UNIQUE)" style="text;html=1;strokeColor=none;fillColor=none;align=left;verticalAlign=middle;whiteSpace=wrap;rounded=0;" vertex="1" parent="LovLC7l2qMn9VrOVw8My-55">
          <mxGeometry x="45" y="83" width="148" height="30" as="geometry" />
        </mxCell>
        <mxCell id="LovLC7l2qMn9VrOVw8My-61" value="FK" style="text;html=1;strokeColor=none;fillColor=none;align=center;verticalAlign=middle;whiteSpace=wrap;rounded=0;" vertex="1" parent="LovLC7l2qMn9VrOVw8My-55">
          <mxGeometry y="83" width="40" height="30" as="geometry" />
        </mxCell>
        <mxCell id="LovLC7l2qMn9VrOVw8My-62" value="date_issue (NOT NULL)" style="text;html=1;strokeColor=none;fillColor=none;align=left;verticalAlign=middle;whiteSpace=wrap;rounded=0;" vertex="1" parent="LovLC7l2qMn9VrOVw8My-55">
          <mxGeometry x="45" y="113" width="148" height="30" as="geometry" />
        </mxCell>
        <mxCell id="LovLC7l2qMn9VrOVw8My-64" value="FK" style="text;html=1;strokeColor=none;fillColor=none;align=center;verticalAlign=middle;whiteSpace=wrap;rounded=0;" vertex="1" parent="LovLC7l2qMn9VrOVw8My-55">
          <mxGeometry y="53" width="40" height="30" as="geometry" />
        </mxCell>
        <mxCell id="LovLC7l2qMn9VrOVw8My-65" value="id" style="text;html=1;strokeColor=none;fillColor=none;align=center;verticalAlign=middle;whiteSpace=wrap;rounded=0;" vertex="1" parent="1">
          <mxGeometry x="145" y="553" width="60" height="30" as="geometry" />
        </mxCell>
        <mxCell id="LovLC7l2qMn9VrOVw8My-63" value="date_return" style="text;html=1;strokeColor=none;fillColor=none;align=left;verticalAlign=middle;whiteSpace=wrap;rounded=0;" vertex="1" parent="1">
          <mxGeometry x="165" y="666" width="148" height="30" as="geometry" />
        </mxCell>
        <mxCell id="LovLC7l2qMn9VrOVw8My-67" value="Employee" style="swimlane;whiteSpace=wrap;html=1;" vertex="1" parent="1">
          <mxGeometry x="501" y="530" width="200" height="200" as="geometry" />
        </mxCell>
        <mxCell id="LovLC7l2qMn9VrOVw8My-68" value="" style="rounded=0;whiteSpace=wrap;html=1;" vertex="1" parent="LovLC7l2qMn9VrOVw8My-67">
          <mxGeometry y="23" width="40" height="177" as="geometry" />
        </mxCell>
        <mxCell id="LovLC7l2qMn9VrOVw8My-69" value="" style="rounded=0;whiteSpace=wrap;html=1;fillColor=none;" vertex="1" parent="LovLC7l2qMn9VrOVw8My-67">
          <mxGeometry y="23" width="200" height="27" as="geometry" />
        </mxCell>
        <mxCell id="LovLC7l2qMn9VrOVw8My-70" value="PK" style="text;html=1;strokeColor=none;fillColor=none;align=center;verticalAlign=middle;whiteSpace=wrap;rounded=0;" vertex="1" parent="LovLC7l2qMn9VrOVw8My-67">
          <mxGeometry y="23" width="40" height="30" as="geometry" />
        </mxCell>
        <mxCell id="LovLC7l2qMn9VrOVw8My-71" value="first_name (NOT NULL)" style="text;html=1;strokeColor=none;fillColor=none;align=left;verticalAlign=middle;whiteSpace=wrap;rounded=0;" vertex="1" parent="LovLC7l2qMn9VrOVw8My-67">
          <mxGeometry x="46" y="53" width="134" height="30" as="geometry" />
        </mxCell>
        <mxCell id="LovLC7l2qMn9VrOVw8My-76" value="№_driver&#39;s_licensce" style="text;html=1;strokeColor=none;fillColor=none;align=center;verticalAlign=middle;whiteSpace=wrap;rounded=0;" vertex="1" parent="LovLC7l2qMn9VrOVw8My-67">
          <mxGeometry x="43" y="23" width="119" height="30" as="geometry" />
        </mxCell>
        <mxCell id="LovLC7l2qMn9VrOVw8My-77" value="second_name (NOT NULL)" style="text;html=1;strokeColor=none;fillColor=none;align=left;verticalAlign=middle;whiteSpace=wrap;rounded=0;" vertex="1" parent="LovLC7l2qMn9VrOVw8My-67">
          <mxGeometry x="46" y="80" width="154" height="30" as="geometry" />
        </mxCell>
        <mxCell id="LovLC7l2qMn9VrOVw8My-78" value="surname (NOT NULL)" style="text;html=1;strokeColor=none;fillColor=none;align=left;verticalAlign=middle;whiteSpace=wrap;rounded=0;" vertex="1" parent="LovLC7l2qMn9VrOVw8My-67">
          <mxGeometry x="46" y="110" width="154" height="30" as="geometry" />
        </mxCell>
        <mxCell id="LovLC7l2qMn9VrOVw8My-79" value="" style="edgeStyle=elbowEdgeStyle;fontSize=12;html=1;endArrow=ERoneToMany;rounded=0;entryX=1;entryY=0.5;entryDx=0;entryDy=0;" edge="1" parent="1" source="LovLC7l2qMn9VrOVw8My-70" target="LovLC7l2qMn9VrOVw8My-55">
          <mxGeometry width="100" height="100" relative="1" as="geometry">
            <mxPoint x="230" y="570" as="sourcePoint" />
            <mxPoint x="330" y="470" as="targetPoint" />
          </mxGeometry>
        </mxCell>
        <mxCell id="LovLC7l2qMn9VrOVw8My-80" value="" style="edgeStyle=elbowEdgeStyle;fontSize=12;html=1;endArrow=ERoneToMany;rounded=0;exitX=1;exitY=0.75;exitDx=0;exitDy=0;" edge="1" parent="1" source="LovLC7l2qMn9VrOVw8My-34">
          <mxGeometry width="100" height="100" relative="1" as="geometry">
            <mxPoint x="330" y="330" as="sourcePoint" />
            <mxPoint x="320" y="600" as="targetPoint" />
            <Array as="points">
              <mxPoint x="370" y="470" />
            </Array>
          </mxGeometry>
        </mxCell>
      </root>
    </mxGraphModel>
  </diagram>
</mxfile>
